<svg width="16" height="16" viewBox="0 0 16 16" fill="none" xmlns="http://www.w3.org/2000/svg">
<path d="M7.246 11.0872C7.20733 11.0495 7.042 10.9073 6.906 10.7748C6.05067 9.99806 4.65067 7.97175 4.22333 6.91119C4.15467 6.75013 4.00933 6.34292 4 6.12535C4 5.91687 4.048 5.71814 4.14533 5.5285C4.28133 5.2921 4.49533 5.10246 4.748 4.99854C4.92333 4.93165 5.448 4.82774 5.45733 4.82774C6.03133 4.72382 6.964 4.66667 7.99467 4.66667C8.97667 4.66667 9.87133 4.72382 10.454 4.8089C10.4633 4.81864 11.1153 4.92256 11.3387 5.03621C11.7467 5.24469 12 5.6519 12 6.08768V6.12535C11.99 6.40916 11.7367 7.00601 11.7273 7.00601C11.2993 8.00942 9.968 9.98896 9.08333 10.7845C9.08333 10.7845 8.856 11.0086 8.714 11.106C8.51 11.258 8.25733 11.3333 8.00467 11.3333C7.72267 11.3333 7.46 11.2483 7.246 11.0872Z" fill="#ADB3CC"/>
</svg>
