<svg width="28" height="28" viewBox="0 0 28 28" fill="none" xmlns="http://www.w3.org/2000/svg">
<path fill-rule="evenodd" clip-rule="evenodd" d="M11.5236 17.7406C7.03897 17.7406 3.2088 18.4184 3.2088 21.1344C3.2088 23.8492 7.01447 24.5527 11.5236 24.5527C16.0083 24.5527 19.8385 23.8737 19.8385 21.1589C19.8385 18.4441 16.0328 17.7406 11.5236 17.7406Z" stroke="#ADB3CC" stroke-width="1.5" stroke-linecap="round" stroke-linejoin="round"/>
<path fill-rule="evenodd" clip-rule="evenodd" d="M11.5236 13.8669C14.4823 13.8669 16.853 11.4951 16.853 8.53755C16.853 5.57889 14.4823 3.20822 11.5236 3.20822C8.56613 3.20822 6.1943 5.57889 6.1943 8.53755C6.1943 11.4951 8.56613 13.8669 11.5236 13.8669Z" stroke="#ADB3CC" stroke-width="1.5" stroke-linecap="round" stroke-linejoin="round"/>
<path d="M22.4048 10.114V14.7923" stroke="#ADB3CC" stroke-width="1.5" stroke-linecap="round" stroke-linejoin="round"/>
<path d="M24.7917 12.453H20.02" stroke="#ADB3CC" stroke-width="1.5" stroke-linecap="round" stroke-linejoin="round"/>
</svg>
