<svg width="318" height="197" viewBox="0 0 318 197" fill="none" xmlns="http://www.w3.org/2000/svg">
<rect width="318" height="197" rx="12" fill="#1A1E30"/>
<mask id="mask0_578_4573" style="mask-type:alpha" maskUnits="userSpaceOnUse" x="0" y="0" width="318" height="197">
<rect width="318" height="197" rx="12" fill="#0329E8"/>
</mask>
<g mask="url(#mask0_578_4573)">
<path d="M59.8401 130.716C34.5251 129.252 0.264771 152.204 0.264771 152.204V227.412H317.735V130.716C317.735 130.716 293.339 144.189 276.694 141.899C250.126 138.243 265.152 100.304 239.361 93.8796C220.679 89.2262 208.547 107.871 190.376 101.992C172.093 96.0773 178.321 75.852 160.986 68.2256C121.781 50.9777 154.004 152.923 109.619 152.204C87.7005 151.849 81.7092 131.981 59.8401 130.716Z" fill="#2E3757"/>
<path d="M0.264771 152.204C0.264771 152.204 34.5251 129.252 59.8401 130.716C81.7092 131.981 87.7005 151.849 109.619 152.204C154.004 152.923 121.781 50.9777 160.986 68.2256C178.321 75.852 172.093 96.0773 190.376 101.992C208.547 107.871 220.679 89.2262 239.361 93.8796C265.152 100.304 250.126 138.243 276.694 141.899C293.339 144.189 317.735 130.716 317.735 130.716" stroke="url(#paint0_linear_578_4573)" stroke-width="3" stroke-linecap="round"/>
<path opacity="0.3" d="M158.338 227.412V52" stroke="white" stroke-width="2" stroke-linecap="round" stroke-dasharray="0 1 14 0 1 14"/>
<g filter="url(#filter0_d_578_4573)">
<circle cx="159" cy="68" r="7" fill="#1A1E30"/>
<circle cx="159" cy="68" r="5" stroke="white" stroke-width="4"/>
</g>
<g filter="url(#filter1_b_578_4573)">
<rect x="122" y="82" width="74" height="47" rx="8" fill="#42BBFF" fill-opacity="0.06"/>
<path d="M141.739 104.139C141.026 104.139 140.397 104.017 139.85 103.771C139.306 103.526 138.88 103.188 138.572 102.757C138.264 102.326 138.111 101.836 138.115 101.286C138.111 100.855 138.199 100.459 138.378 100.097C138.56 99.7327 138.807 99.4295 139.119 99.1875C139.43 98.9422 139.778 98.7865 140.163 98.7202V98.6605C139.656 98.5379 139.25 98.2661 138.945 97.8452C138.64 97.4242 138.489 96.9403 138.492 96.3935C138.489 95.8731 138.627 95.4091 138.905 95.0014C139.187 94.5904 139.573 94.2673 140.063 94.032C140.554 93.7966 141.112 93.679 141.739 93.679C142.359 93.679 142.912 93.7983 143.399 94.0369C143.89 94.2723 144.276 94.5954 144.558 95.0064C144.84 95.4141 144.982 95.8764 144.985 96.3935C144.982 96.9403 144.826 97.4242 144.518 97.8452C144.21 98.2661 143.809 98.5379 143.315 98.6605V98.7202C143.696 98.7865 144.039 98.9422 144.344 99.1875C144.652 99.4295 144.898 99.7327 145.08 100.097C145.265 100.459 145.36 100.855 145.363 101.286C145.36 101.836 145.204 102.326 144.896 102.757C144.588 103.188 144.16 103.526 143.613 103.771C143.07 104.017 142.445 104.139 141.739 104.139ZM141.739 102.881C142.16 102.881 142.524 102.812 142.833 102.673C143.141 102.53 143.38 102.333 143.549 102.081C143.718 101.826 143.804 101.527 143.807 101.186C143.804 100.831 143.711 100.518 143.529 100.246C143.35 99.9747 143.106 99.7609 142.798 99.6051C142.49 99.4493 142.137 99.3714 141.739 99.3714C141.338 99.3714 140.982 99.4493 140.67 99.6051C140.358 99.7609 140.113 99.9747 139.934 100.246C139.755 100.518 139.667 100.831 139.671 101.186C139.667 101.527 139.749 101.826 139.914 102.081C140.083 102.333 140.324 102.53 140.635 102.673C140.947 102.812 141.315 102.881 141.739 102.881ZM141.739 98.1435C142.077 98.1435 142.377 98.0755 142.639 97.9396C142.901 97.8037 143.106 97.6148 143.255 97.3729C143.408 97.1309 143.486 96.8475 143.489 96.5227C143.486 96.2045 143.409 95.9261 143.26 95.6875C143.114 95.4489 142.911 95.2649 142.649 95.1357C142.387 95.0031 142.084 94.9368 141.739 94.9368C141.388 94.9368 141.079 95.0031 140.814 95.1357C140.552 95.2649 140.348 95.4489 140.203 95.6875C140.057 95.9261 139.986 96.2045 139.989 96.5227C139.986 96.8475 140.058 97.1309 140.208 97.3729C140.357 97.6148 140.562 97.8037 140.824 97.9396C141.089 98.0755 141.394 98.1435 141.739 98.1435ZM146.65 102.011V100.768L151.05 93.8182H152.03V95.6477H151.408L148.261 100.629V100.709H154.292V102.011H146.65ZM151.478 104V101.634L151.488 101.067V93.8182H152.945V104H151.478ZM157.315 102.608L157.241 103.15C157.191 103.548 157.107 103.962 156.987 104.393C156.871 104.827 156.75 105.23 156.624 105.601C156.502 105.972 156.401 106.267 156.321 106.486H155.267C155.31 106.28 155.37 106.002 155.446 105.651C155.522 105.303 155.597 104.913 155.67 104.482C155.743 104.051 155.797 103.612 155.834 103.165L155.884 102.608H157.315ZM161.747 93.8182V104H160.206V95.3594H160.146L157.71 96.9503V95.4787L160.251 93.8182H161.747ZM167.582 104.139C166.959 104.139 166.399 104.02 165.902 103.781C165.408 103.539 165.014 103.208 164.719 102.787C164.424 102.366 164.266 101.885 164.246 101.345H165.738C165.774 101.783 165.968 102.142 166.32 102.424C166.671 102.706 167.092 102.847 167.582 102.847C167.973 102.847 168.32 102.757 168.621 102.578C168.926 102.396 169.165 102.146 169.337 101.827C169.513 101.509 169.601 101.146 169.601 100.739C169.601 100.324 169.511 99.9548 169.332 99.63C169.153 99.3052 168.906 99.05 168.592 98.8643C168.28 98.6787 167.922 98.5843 167.518 98.581C167.209 98.581 166.9 98.634 166.588 98.7401C166.276 98.8461 166.025 98.9853 165.832 99.1577L164.425 98.9489L164.997 93.8182H170.595V95.1357H166.275L165.952 97.9844H166.011C166.21 97.7921 166.474 97.6314 166.802 97.5021C167.133 97.3729 167.488 97.3082 167.866 97.3082C168.485 97.3082 169.037 97.4557 169.521 97.7507C170.008 98.0457 170.391 98.4484 170.67 98.9588C170.951 99.4659 171.091 100.049 171.087 100.709C171.091 101.368 170.941 101.957 170.64 102.474C170.342 102.991 169.927 103.398 169.397 103.697C168.87 103.992 168.265 104.139 167.582 104.139ZM176.168 104.169C175.382 104.166 174.711 103.959 174.154 103.548C173.598 103.137 173.172 102.538 172.877 101.753C172.582 100.967 172.434 100.021 172.434 98.9141C172.434 97.8104 172.582 96.8674 172.877 96.0852C173.175 95.303 173.603 94.7064 174.159 94.2955C174.72 93.8845 175.389 93.679 176.168 93.679C176.947 93.679 177.615 93.8861 178.171 94.3004C178.728 94.7114 179.154 95.308 179.449 96.0902C179.747 96.8691 179.897 97.8104 179.897 98.9141C179.897 100.024 179.749 100.972 179.454 101.758C179.159 102.54 178.733 103.138 178.176 103.553C177.62 103.964 176.95 104.169 176.168 104.169ZM176.168 102.842C176.857 102.842 177.396 102.505 177.784 101.832C178.175 101.16 178.37 100.187 178.37 98.9141C178.37 98.0689 178.281 97.3546 178.102 96.7713C177.926 96.1847 177.673 95.7405 177.341 95.4389C177.013 95.134 176.622 94.9815 176.168 94.9815C175.482 94.9815 174.943 95.3196 174.552 95.9957C174.161 96.6719 173.964 97.6446 173.961 98.9141C173.961 99.7625 174.048 100.48 174.224 101.067C174.403 101.65 174.657 102.093 174.985 102.394C175.313 102.692 175.707 102.842 176.168 102.842Z" fill="white"/>
<path d="M147.188 117.778V112.977H148.143V117.778H147.188ZM145.267 115.854V114.902H150.068V115.854H145.267ZM151.344 117.58V116.692L154.486 111.727H155.186V113.034H154.742L152.494 116.592V116.649H156.802V117.58H151.344ZM154.792 119V117.31L154.799 116.905V111.727H155.839V119H154.792ZM158.28 119.067C158.085 119.067 157.919 118.999 157.779 118.862C157.639 118.722 157.569 118.554 157.569 118.357C157.569 118.163 157.639 117.997 157.779 117.86C157.919 117.72 158.085 117.651 158.28 117.651C158.474 117.651 158.641 117.72 158.78 117.86C158.92 117.997 158.99 118.163 158.99 118.357C158.99 118.487 158.957 118.607 158.89 118.716C158.826 118.822 158.741 118.908 158.635 118.972C158.528 119.036 158.41 119.067 158.28 119.067ZM162.481 119.099C162.036 119.099 161.636 119.014 161.281 118.844C160.928 118.671 160.646 118.434 160.436 118.134C160.225 117.833 160.113 117.49 160.098 117.104H161.164C161.19 117.416 161.328 117.673 161.579 117.874C161.83 118.076 162.131 118.176 162.481 118.176C162.761 118.176 163.008 118.112 163.223 117.984C163.441 117.854 163.612 117.675 163.735 117.448C163.86 117.221 163.923 116.962 163.923 116.67C163.923 116.375 163.859 116.111 163.731 115.879C163.603 115.647 163.427 115.464 163.202 115.332C162.98 115.199 162.724 115.132 162.435 115.129C162.215 115.129 161.994 115.167 161.771 115.243C161.548 115.319 161.369 115.418 161.231 115.541L160.226 115.392L160.635 111.727H164.633V112.668H161.547L161.316 114.703H161.359C161.501 114.566 161.689 114.451 161.924 114.359C162.16 114.266 162.414 114.22 162.684 114.22C163.126 114.22 163.52 114.326 163.866 114.536C164.214 114.747 164.488 115.035 164.686 115.399C164.888 115.761 164.987 116.178 164.985 116.649C164.987 117.12 164.881 117.54 164.665 117.91C164.452 118.279 164.156 118.57 163.777 118.783C163.401 118.994 162.969 119.099 162.481 119.099ZM169.878 117.636V117.253C169.878 116.978 169.935 116.727 170.048 116.5C170.164 116.27 170.333 116.087 170.553 115.95C170.775 115.81 171.044 115.74 171.359 115.74C171.681 115.74 171.951 115.809 172.168 115.946C172.386 116.083 172.551 116.267 172.662 116.496C172.776 116.726 172.833 116.978 172.833 117.253V117.636C172.833 117.911 172.776 118.163 172.662 118.393C172.548 118.62 172.382 118.804 172.161 118.943C171.944 119.08 171.676 119.149 171.359 119.149C171.039 119.149 170.769 119.08 170.549 118.943C170.329 118.804 170.162 118.62 170.048 118.393C169.935 118.163 169.878 117.911 169.878 117.636ZM170.705 117.253V117.636C170.705 117.84 170.754 118.025 170.851 118.19C170.948 118.356 171.117 118.439 171.359 118.439C171.598 118.439 171.765 118.356 171.86 118.19C171.954 118.025 172.002 117.84 172.002 117.636V117.253C172.002 117.049 171.955 116.865 171.863 116.699C171.773 116.533 171.605 116.45 171.359 116.45C171.122 116.45 170.954 116.533 170.855 116.699C170.755 116.865 170.705 117.049 170.705 117.253ZM166.22 113.474V113.091C166.22 112.816 166.277 112.564 166.391 112.335C166.507 112.105 166.675 111.921 166.895 111.784C167.118 111.647 167.386 111.578 167.701 111.578C168.023 111.578 168.293 111.647 168.511 111.784C168.729 111.921 168.893 112.105 169.004 112.335C169.116 112.564 169.171 112.816 169.171 113.091V113.474C169.171 113.749 169.114 114.001 169.001 114.231C168.89 114.458 168.724 114.642 168.504 114.781C168.286 114.919 168.018 114.987 167.701 114.987C167.379 114.987 167.108 114.919 166.888 114.781C166.67 114.642 166.504 114.458 166.391 114.231C166.277 114.001 166.22 113.749 166.22 113.474ZM167.051 113.091V113.474C167.051 113.678 167.099 113.863 167.193 114.028C167.29 114.194 167.46 114.277 167.701 114.277C167.938 114.277 168.104 114.194 168.198 114.028C168.295 113.863 168.344 113.678 168.344 113.474V113.091C168.344 112.887 168.298 112.703 168.205 112.537C168.113 112.371 167.945 112.288 167.701 112.288C167.464 112.288 167.296 112.371 167.197 112.537C167.1 112.703 167.051 112.887 167.051 113.091ZM166.558 119L171.558 111.727H172.406L167.406 119H166.558Z" fill="white"/>
<rect x="122.5" y="82.5" width="73" height="46" rx="7.5" stroke="#8B91A5"/>
</g>
</g>
<path d="M35.6115 28.4545H37.3729V38.0852C37.3729 39.0795 37.1385 39.9673 36.6697 40.7486C36.2057 41.5251 35.55 42.1383 34.7024 42.5881C33.8549 43.0331 32.8606 43.2557 31.7195 43.2557C30.5784 43.2557 29.584 43.0331 28.7365 42.5881C27.889 42.1383 27.2308 41.5251 26.7621 40.7486C26.2981 39.9673 26.0661 39.0795 26.0661 38.0852V28.4545H27.8274V37.9432C27.8274 38.6534 27.9837 39.2855 28.2962 39.8395C28.6087 40.3887 29.0537 40.822 29.6314 41.1392C30.2138 41.4517 30.9098 41.608 31.7195 41.608C32.5291 41.608 33.2251 41.4517 33.8075 41.1392C34.3899 40.822 34.835 40.3887 35.1428 39.8395C35.4553 39.2855 35.6115 38.6534 35.6115 37.9432V28.4545ZM42.3391 36.4375V43H40.663V32.0909H42.2823V33.7955H42.4244C42.68 33.2415 43.0683 32.7964 43.5891 32.4602C44.11 32.1193 44.7823 31.9489 45.6062 31.9489C46.3448 31.9489 46.9911 32.1004 47.5451 32.4034C48.0991 32.7017 48.5299 33.1562 48.8377 33.767C49.1455 34.3731 49.2994 35.1402 49.2994 36.0682V43H47.6232V36.1818C47.6232 35.3248 47.4007 34.6572 46.9556 34.179C46.5105 33.696 45.8997 33.4545 45.1232 33.4545C44.5882 33.4545 44.11 33.5705 43.6886 33.8026C43.2719 34.0346 42.9428 34.3731 42.7013 34.8182C42.4599 35.2633 42.3391 35.803 42.3391 36.4375ZM52.3622 43V32.0909H54.0384V43H52.3622ZM53.2145 30.2727C52.8878 30.2727 52.6061 30.1615 52.3693 29.9389C52.1373 29.7164 52.0213 29.4489 52.0213 29.1364C52.0213 28.8239 52.1373 28.5563 52.3693 28.3338C52.6061 28.1113 52.8878 28 53.2145 28C53.5412 28 53.8205 28.1113 54.0526 28.3338C54.2893 28.5563 54.4077 28.8239 54.4077 29.1364C54.4077 29.4489 54.2893 29.7164 54.0526 29.9389C53.8205 30.1615 53.5412 30.2727 53.2145 30.2727ZM64.5515 47.0909V41.3239H64.4094C64.2863 41.5227 64.1112 41.7737 63.8839 42.0767C63.6566 42.375 63.3323 42.6425 62.9109 42.8793C62.4895 43.1113 61.9284 43.2273 61.2276 43.2273C60.3185 43.2273 59.516 42.9976 58.82 42.5384C58.1239 42.0743 57.5794 41.4209 57.1864 40.5781C56.7934 39.7306 56.5969 38.7292 56.5969 37.5739C56.5969 36.428 56.7934 35.4337 57.1864 34.5909C57.5794 33.7481 58.1263 33.0971 58.8271 32.6378C59.5278 32.1785 60.3375 31.9489 61.256 31.9489C61.9663 31.9489 62.5273 32.0672 62.9393 32.304C63.3559 32.536 63.6732 32.8011 63.891 33.0994C64.1135 33.393 64.2863 33.6345 64.4094 33.8239H64.6083V32.0909H66.2276V47.0909H64.5515ZM61.4549 41.7216C62.1272 41.7216 62.6954 41.5464 63.1594 41.196C63.6235 40.8409 63.9762 40.3509 64.2177 39.7259C64.4592 39.0961 64.5799 38.3693 64.5799 37.5455C64.5799 36.7311 64.4615 36.0185 64.2248 35.4077C63.988 34.7921 63.6377 34.3139 63.1737 33.973C62.7096 33.6274 62.1367 33.4545 61.4549 33.4545C60.7447 33.4545 60.1528 33.6368 59.6793 34.0014C59.2106 34.3613 58.8578 34.8513 58.6211 35.4716C58.3891 36.0871 58.2731 36.7784 58.2731 37.5455C58.2731 38.322 58.3915 39.0275 58.6282 39.6619C58.8697 40.2917 59.2248 40.7936 59.6935 41.1676C60.167 41.5369 60.7541 41.7216 61.4549 41.7216ZM76.1708 38.5398V32.0909H77.8469V43H76.1708V41.1534H76.0572C75.8015 41.7074 75.4038 42.1785 74.864 42.5668C74.3242 42.9503 73.6424 43.142 72.8185 43.142C72.1367 43.142 71.5307 42.9929 71.0004 42.6946C70.4701 42.3916 70.0534 41.937 69.7504 41.331C69.4473 40.7202 69.2958 39.9508 69.2958 39.0227V32.0909H70.9719V38.9091C70.9719 39.7045 71.1945 40.339 71.6396 40.8125C72.0894 41.286 72.6623 41.5227 73.3583 41.5227C73.775 41.5227 74.1987 41.4162 74.6296 41.2031C75.0652 40.9901 75.4298 40.6634 75.7234 40.223C76.0217 39.7827 76.1708 39.2216 76.1708 38.5398ZM85.4908 43.2273C84.4396 43.2273 83.5329 42.9953 82.7706 42.5312C82.013 42.0625 81.4283 41.4091 81.0163 40.571C80.6091 39.7282 80.4055 38.7481 80.4055 37.6307C80.4055 36.5133 80.6091 35.5284 81.0163 34.6761C81.4283 33.8191 82.0012 33.1515 82.7351 32.6733C83.4737 32.1903 84.3355 31.9489 85.3203 31.9489C85.8885 31.9489 86.4496 32.0436 87.0036 32.233C87.5575 32.4223 88.0618 32.7301 88.5163 33.1562C88.9709 33.5777 89.3331 34.1364 89.603 34.8324C89.8729 35.5284 90.0078 36.3854 90.0078 37.4034V38.1136H81.5987V36.6648H88.3033C88.3033 36.0492 88.1802 35.5 87.9339 35.017C87.6925 34.5341 87.3468 34.1529 86.897 33.8736C86.4519 33.5942 85.9264 33.4545 85.3203 33.4545C84.6527 33.4545 84.075 33.6203 83.5874 33.9517C83.1044 34.2784 82.7327 34.7045 82.4723 35.2301C82.2119 35.7557 82.0817 36.3191 82.0817 36.9205V37.8864C82.0817 38.7102 82.2237 39.4086 82.5078 39.9815C82.7966 40.5497 83.1967 40.983 83.7081 41.2812C84.2195 41.5748 84.8137 41.7216 85.4908 41.7216C85.9311 41.7216 86.3288 41.66 86.6839 41.5369C87.0438 41.4091 87.3539 41.2197 87.6143 40.9688C87.8748 40.7131 88.076 40.3958 88.218 40.017L89.8374 40.4716C89.6669 41.0208 89.3804 41.5038 88.978 41.9205C88.5755 42.3324 88.0784 42.6544 87.4865 42.8864C86.8946 43.1136 86.2294 43.2273 85.4908 43.2273ZM107.103 32.0909L103.069 43H101.364L97.3303 32.0909H99.1484L102.16 40.7841H102.273L105.285 32.0909H107.103ZM109.315 43V32.0909H110.991V43H109.315ZM110.168 30.2727C109.841 30.2727 109.559 30.1615 109.322 29.9389C109.09 29.7164 108.974 29.4489 108.974 29.1364C108.974 28.8239 109.09 28.5563 109.322 28.3338C109.559 28.1113 109.841 28 110.168 28C110.494 28 110.774 28.1113 111.006 28.3338C111.242 28.5563 111.361 28.8239 111.361 29.1364C111.361 29.4489 111.242 29.7164 111.006 29.9389C110.774 30.1615 110.494 30.2727 110.168 30.2727ZM121.789 34.5341L120.283 34.9602C120.188 34.7093 120.049 34.4654 119.864 34.2287C119.684 33.9872 119.438 33.7884 119.125 33.6321C118.813 33.4759 118.413 33.3977 117.925 33.3977C117.257 33.3977 116.701 33.5516 116.256 33.8594C115.816 34.1624 115.596 34.5483 115.596 35.017C115.596 35.4337 115.747 35.7628 116.05 36.0043C116.353 36.2457 116.827 36.447 117.471 36.608L119.09 37.0057C120.065 37.2424 120.792 37.6046 121.27 38.0923C121.748 38.5753 121.988 39.1979 121.988 39.9602C121.988 40.5852 121.808 41.1439 121.448 41.6364C121.093 42.1288 120.596 42.517 119.956 42.8011C119.317 43.0852 118.574 43.2273 117.726 43.2273C116.614 43.2273 115.693 42.9858 114.963 42.5028C114.234 42.0199 113.773 41.3144 113.578 40.3864L115.169 39.9886C115.321 40.5758 115.607 41.0161 116.029 41.3097C116.455 41.6032 117.011 41.75 117.698 41.75C118.479 41.75 119.099 41.5843 119.559 41.2528C120.023 40.9167 120.255 40.5142 120.255 40.0455C120.255 39.6667 120.122 39.3494 119.857 39.0938C119.592 38.8333 119.185 38.6392 118.635 38.5114L116.817 38.0852C115.818 37.8485 115.084 37.4815 114.615 36.9844C114.151 36.4825 113.919 35.8551 113.919 35.1023C113.919 34.4867 114.092 33.9422 114.438 33.4688C114.788 32.9953 115.264 32.6236 115.865 32.3537C116.471 32.0838 117.158 31.9489 117.925 31.9489C119.005 31.9489 119.852 32.1856 120.468 32.6591C121.088 33.1326 121.528 33.7576 121.789 34.5341ZM124.511 43V32.0909H126.187V43H124.511ZM125.363 30.2727C125.036 30.2727 124.754 30.1615 124.518 29.9389C124.286 29.7164 124.17 29.4489 124.17 29.1364C124.17 28.8239 124.286 28.5563 124.518 28.3338C124.754 28.1113 125.036 28 125.363 28C125.69 28 125.969 28.1113 126.201 28.3338C126.438 28.5563 126.556 28.8239 126.556 29.1364C126.556 29.4489 126.438 29.7164 126.201 29.9389C125.969 30.1615 125.69 30.2727 125.363 30.2727ZM134.001 32.0909V33.5114H128.348V32.0909H134.001ZM129.995 29.4773H131.672V39.875C131.672 40.3485 131.74 40.7036 131.877 40.9403C132.02 41.1723 132.199 41.3286 132.417 41.4091C132.64 41.4848 132.874 41.5227 133.12 41.5227C133.305 41.5227 133.457 41.5133 133.575 41.4943C133.693 41.4706 133.788 41.4517 133.859 41.4375L134.2 42.9432C134.086 42.9858 133.928 43.0284 133.724 43.071C133.52 43.1184 133.262 43.142 132.95 43.142C132.476 43.142 132.012 43.0402 131.558 42.8366C131.108 42.633 130.734 42.3229 130.436 41.9062C130.142 41.4896 129.995 40.964 129.995 40.3295V29.4773ZM140.837 43.2273C139.852 43.2273 138.988 42.9929 138.245 42.5241C137.506 42.0554 136.928 41.3996 136.512 40.5568C136.1 39.714 135.894 38.7292 135.894 37.6023C135.894 36.4659 136.1 35.474 136.512 34.6264C136.928 33.7789 137.506 33.1207 138.245 32.652C138.988 32.1832 139.852 31.9489 140.837 31.9489C141.822 31.9489 142.684 32.1832 143.422 32.652C144.166 33.1207 144.743 33.7789 145.155 34.6264C145.572 35.474 145.78 36.4659 145.78 37.6023C145.78 38.7292 145.572 39.714 145.155 40.5568C144.743 41.3996 144.166 42.0554 143.422 42.5241C142.684 42.9929 141.822 43.2273 140.837 43.2273ZM140.837 41.7216C141.585 41.7216 142.201 41.5298 142.684 41.1463C143.167 40.7628 143.524 40.2585 143.756 39.6335C143.988 39.0085 144.104 38.3314 144.104 37.6023C144.104 36.8731 143.988 36.1937 143.756 35.5639C143.524 34.9342 143.167 34.4252 142.684 34.0369C142.201 33.6487 141.585 33.4545 140.837 33.4545C140.089 33.4545 139.473 33.6487 138.99 34.0369C138.507 34.4252 138.15 34.9342 137.918 35.5639C137.686 36.1937 137.57 36.8731 137.57 37.6023C137.57 38.3314 137.686 39.0085 137.918 39.6335C138.15 40.2585 138.507 40.7628 138.99 41.1463C139.473 41.5298 140.089 41.7216 140.837 41.7216ZM148.339 43V32.0909H149.958V33.7386H150.072C150.271 33.1989 150.63 32.7609 151.151 32.4247C151.672 32.0885 152.259 31.9205 152.913 31.9205C153.036 31.9205 153.19 31.9228 153.374 31.9276C153.559 31.9323 153.699 31.9394 153.793 31.9489V33.6534C153.737 33.6392 153.606 33.6179 153.403 33.5895C153.204 33.5563 152.993 33.5398 152.771 33.5398C152.24 33.5398 151.767 33.651 151.35 33.8736C150.938 34.0914 150.612 34.3944 150.37 34.7827C150.133 35.1662 150.015 35.6042 150.015 36.0966V43H148.339ZM163.507 34.5341L162.002 34.9602C161.907 34.7093 161.767 34.4654 161.583 34.2287C161.403 33.9872 161.157 33.7884 160.844 33.6321C160.532 33.4759 160.132 33.3977 159.644 33.3977C158.976 33.3977 158.42 33.5516 157.975 33.8594C157.534 34.1624 157.314 34.5483 157.314 35.017C157.314 35.4337 157.466 35.7628 157.769 36.0043C158.072 36.2457 158.545 36.447 159.189 36.608L160.809 37.0057C161.784 37.2424 162.511 37.6046 162.989 38.0923C163.467 38.5753 163.706 39.1979 163.706 39.9602C163.706 40.5852 163.526 41.1439 163.167 41.6364C162.811 42.1288 162.314 42.517 161.675 42.8011C161.036 43.0852 160.292 43.2273 159.445 43.2273C158.332 43.2273 157.411 42.9858 156.682 42.5028C155.953 42.0199 155.491 41.3144 155.297 40.3864L156.888 39.9886C157.04 40.5758 157.326 41.0161 157.748 41.3097C158.174 41.6032 158.73 41.75 159.417 41.75C160.198 41.75 160.818 41.5843 161.277 41.2528C161.741 40.9167 161.973 40.5142 161.973 40.0455C161.973 39.6667 161.841 39.3494 161.576 39.0938C161.31 38.8333 160.903 38.6392 160.354 38.5114L158.536 38.0852C157.537 37.8485 156.803 37.4815 156.334 36.9844C155.87 36.4825 155.638 35.8551 155.638 35.1023C155.638 34.4867 155.811 33.9422 156.157 33.4688C156.507 32.9953 156.983 32.6236 157.584 32.3537C158.19 32.0838 158.877 31.9489 159.644 31.9489C160.723 31.9489 161.571 32.1856 162.186 32.6591C162.807 33.1326 163.247 33.7576 163.507 34.5341Z" fill="#ADB3CC"/>
<defs>
<filter id="filter0_d_578_4573" x="127" y="41" width="64" height="64" filterUnits="userSpaceOnUse" color-interpolation-filters="sRGB">
<feFlood flood-opacity="0" result="BackgroundImageFix"/>
<feColorMatrix in="SourceAlpha" type="matrix" values="0 0 0 0 0 0 0 0 0 0 0 0 0 0 0 0 0 0 127 0" result="hardAlpha"/>
<feOffset dy="5"/>
<feGaussianBlur stdDeviation="12.5"/>
<feColorMatrix type="matrix" values="0 0 0 0 0 0 0 0 0 0 0 0 0 0 0 0 0 0 0.1 0"/>
<feBlend mode="normal" in2="BackgroundImageFix" result="effect1_dropShadow_578_4573"/>
<feBlend mode="normal" in="SourceGraphic" in2="effect1_dropShadow_578_4573" result="shape"/>
</filter>
<filter id="filter1_b_578_4573" x="115" y="75" width="88" height="61" filterUnits="userSpaceOnUse" color-interpolation-filters="sRGB">
<feFlood flood-opacity="0" result="BackgroundImageFix"/>
<feGaussianBlur in="BackgroundImageFix" stdDeviation="3.5"/>
<feComposite in2="SourceAlpha" operator="in" result="effect1_backgroundBlur_578_4573"/>
<feBlend mode="normal" in="SourceGraphic" in2="effect1_backgroundBlur_578_4573" result="shape"/>
</filter>
<linearGradient id="paint0_linear_578_4573" x1="159" y1="66.2598" x2="159" y2="152.208" gradientUnits="userSpaceOnUse">
<stop stop-color="white"/>
<stop offset="1" stop-color="white"/>
</linearGradient>
</defs>
</svg>
