<svg width="20" height="20" viewBox="0 0 20 20" fill="none" xmlns="http://www.w3.org/2000/svg">
<path opacity="0.4" d="M13.6167 1.6665H6.39169C3.56669 1.6665 1.66669 3.64984 1.66669 6.59984V13.4082C1.66669 16.3498 3.56669 18.3332 6.39169 18.3332H13.6167C16.4417 18.3332 18.3334 16.3498 18.3334 13.4082V6.59984C18.3334 3.64984 16.4417 1.6665 13.6167 1.6665Z" fill="#ADB3CC"/>
<path fill-rule="evenodd" clip-rule="evenodd" d="M9.27059 6.82441C9.27059 7.22608 9.59642 7.55358 9.99559 7.55358C10.4064 7.55358 10.7331 7.22608 10.7331 6.82441C10.7331 6.42275 10.4064 6.09525 10.0039 6.09525C9.59975 6.09525 9.27059 6.42275 9.27059 6.82441ZM10.7248 9.46841C10.7248 9.06675 10.3973 8.73925 9.99559 8.73925C9.59392 8.73925 9.26642 9.06675 9.26642 9.46841V13.1517C9.26642 13.5534 9.59392 13.8809 9.99559 13.8809C10.3973 13.8809 10.7248 13.5534 10.7248 13.1517V9.46841Z" fill="#ADB3CC"/>
</svg>
