<svg width="20" height="20" viewBox="0 0 20 20" fill="none" xmlns="http://www.w3.org/2000/svg">
<path opacity="0.4" d="M17.7759 6.2021C17.4267 5.98213 16.9975 5.96267 16.6317 6.1488L15.3967 6.77232C14.94 7.00244 14.6567 7.46775 14.6567 7.98552V12.8468C14.6567 13.3645 14.94 13.829 15.3967 14.0608L16.6309 14.6835C16.7984 14.7698 16.9775 14.8112 17.1567 14.8112C17.3717 14.8112 17.585 14.7503 17.7759 14.631C18.125 14.4119 18.3334 14.032 18.3334 13.6158V7.21817C18.3334 6.80193 18.125 6.42206 17.7759 6.2021Z" fill="#ADB3CC"/>
<path d="M9.92094 16.6667H5.09422C3.07587 16.6667 1.66669 15.2749 1.66669 13.2826V7.55075C1.66669 5.55752 3.07587 4.16666 5.09422 4.16666H9.92094C11.9393 4.16666 13.3485 5.55752 13.3485 7.55075V13.2826C13.3485 15.2749 11.9393 16.6667 9.92094 16.6667Z" fill="#ADB3CC"/>
</svg>
