<svg width="20" height="20" viewBox="0 0 20 20" fill="none" xmlns="http://www.w3.org/2000/svg">
<path opacity="0.4" d="M13.3963 1.66667H16.2179C17.3865 1.66667 18.3333 2.62154 18.3333 3.79997V6.64544C18.3333 7.82386 17.3865 8.77874 16.2179 8.77874H13.3963C12.2277 8.77874 11.2808 7.82386 11.2808 6.64544V3.79997C11.2808 2.62154 12.2277 1.66667 13.3963 1.66667Z" fill="#42BBFF"/>
<path fill-rule="evenodd" clip-rule="evenodd" d="M3.78212 1.66667H6.60376C7.77232 1.66667 8.7192 2.62154 8.7192 3.79997V6.64544C8.7192 7.82386 7.77232 8.77874 6.60376 8.77874H3.78212C2.61357 8.77874 1.66669 7.82386 1.66669 6.64544V3.79997C1.66669 2.62154 2.61357 1.66667 3.78212 1.66667ZM3.78212 11.2213H6.60376C7.77232 11.2213 8.7192 12.1761 8.7192 13.3546V16.2C8.7192 17.3777 7.77232 18.3333 6.60376 18.3333H3.78212C2.61357 18.3333 1.66669 17.3777 1.66669 16.2V13.3546C1.66669 12.1761 2.61357 11.2213 3.78212 11.2213ZM16.2179 11.2213H13.3963C12.2277 11.2213 11.2808 12.1761 11.2808 13.3546V16.2C11.2808 17.3777 12.2277 18.3333 13.3963 18.3333H16.2179C17.3865 18.3333 18.3334 17.3777 18.3334 16.2V13.3546C18.3334 12.1761 17.3865 11.2213 16.2179 11.2213Z" fill="#42BBFF"/>
</svg>
