<svg width="20" height="20" viewBox="0 0 20 20" fill="none" xmlns="http://www.w3.org/2000/svg">
<path fill-rule="evenodd" clip-rule="evenodd" d="M18.3304 6.97927H14.8015C13.1593 6.98216 11.8289 8.27929 11.8259 9.88047C11.8237 11.4853 13.1556 12.7882 14.8015 12.7903H18.3334V13.0453C18.3334 15.8446 16.6363 17.5 13.7645 17.5H6.23632C3.36372 17.5 1.66669 15.8446 1.66669 13.0453V6.94822C1.66669 4.14885 3.36372 2.5 6.23632 2.5H13.7615C16.6334 2.5 18.3304 4.14885 18.3304 6.94822V6.97927ZM5.61632 6.97277H10.3163H10.3193H10.3252C10.6771 6.97133 10.9615 6.69182 10.96 6.34804C10.9585 6.00498 10.6711 5.72765 10.3193 5.72909H5.61632C5.26669 5.73054 4.98298 6.00715 4.9815 6.34876C4.98002 6.69182 5.26446 6.97133 5.61632 6.97277Z" fill="#ADB3CC"/>
<path opacity="0.4" d="M13.3645 10.2472C13.5388 11.0399 14.2338 11.5976 15.0272 11.5831H17.7355C18.0656 11.5831 18.3334 11.3097 18.3334 10.9717V8.86208C18.3327 8.52485 18.0656 8.25073 17.7355 8.25H14.9634C14.0609 8.2529 13.332 9.00204 13.3334 9.92523C13.3334 10.0333 13.344 10.1413 13.3645 10.2472Z" fill="#ADB3CC"/>
<circle cx="15" cy="9.91666" r="0.833333" fill="#ADB3CC"/>
</svg>
