<svg width="20" height="20" viewBox="0 0 20 20" fill="none" xmlns="http://www.w3.org/2000/svg">
<path d="M10.01 12.3584C8.67294 12.3584 7.59137 11.3168 7.59137 10.0084C7.59137 8.70009 8.67294 7.65009 10.01 7.65009C11.3471 7.65009 12.4031 8.70009 12.4031 10.0084C12.4031 11.3168 11.3471 12.3584 10.01 12.3584Z" fill="#ADB3CC"/>
<path opacity="0.4" d="M17.6917 11.9751C17.5299 11.7251 17.2999 11.4751 17.0019 11.3167C16.7634 11.2001 16.6101 11.0084 16.4739 10.7834C16.0395 10.0667 16.295 9.12508 17.0189 8.70008C17.8705 8.22508 18.1431 7.16675 17.6491 6.34175L17.0785 5.35841C16.5931 4.53341 15.5286 4.24175 14.6854 4.72508C13.936 5.12508 12.9737 4.85841 12.5393 4.15008C12.4031 3.91675 12.3264 3.66675 12.3435 3.41675C12.369 3.09175 12.2668 2.78341 12.1135 2.53341C11.7984 2.01675 11.2278 1.66675 10.5976 1.66675H9.39681C8.77512 1.68341 8.20452 2.01675 7.88942 2.53341C7.72761 2.78341 7.63393 3.09175 7.65096 3.41675C7.668 3.66675 7.59135 3.91675 7.45509 4.15008C7.02076 4.85841 6.05841 5.12508 5.31749 4.72508C4.46586 4.24175 3.40984 4.53341 2.91589 5.35841L2.3453 6.34175C1.85987 7.16675 2.13239 8.22508 2.97551 8.70008C3.69939 9.12508 3.95488 10.0667 3.52907 10.7834C3.38429 11.0084 3.231 11.2001 2.99254 11.3167C2.70299 11.4751 2.4475 11.7251 2.31124 11.9751C1.99613 12.4917 2.01316 13.1417 2.32827 13.6834L2.91589 14.6834C3.231 15.2167 3.81862 15.5501 4.4318 15.5501C4.72135 15.5501 5.062 15.4667 5.33453 15.3001C5.54743 15.1584 5.80292 15.1084 6.08396 15.1084C6.92708 15.1084 7.63393 15.8001 7.65096 16.6251C7.65096 17.5834 8.43446 18.3334 9.42236 18.3334H10.5806C11.5599 18.3334 12.3435 17.5834 12.3435 16.6251C12.369 15.8001 13.0759 15.1084 13.919 15.1084C14.1915 15.1084 14.447 15.1584 14.6684 15.3001C14.9409 15.4667 15.2731 15.5501 15.5711 15.5501C16.1758 15.5501 16.7634 15.2167 17.0785 14.6834L17.6747 13.6834C17.9812 13.1251 18.0068 12.4917 17.6917 11.9751Z" fill="#ADB3CC"/>
</svg>
