<svg width="20" height="20" viewBox="0 0 20 20" fill="none" xmlns="http://www.w3.org/2000/svg">
<path opacity="0.4" d="M9.99263 15.5179L4.58285 18.2201C4.17432 18.4418 3.66472 18.2938 3.43622 17.8869C3.36948 17.759 3.33419 17.6168 3.33331 17.4723V11.424C3.33331 12.0236 3.67142 12.3938 4.5608 12.8084L9.99263 15.5179Z" fill="#ADB3CC"/>
<path fill-rule="evenodd" clip-rule="evenodd" d="M7.4127 1.66666H12.5579C14.8144 1.66666 16.6446 2.55503 16.6666 4.8278V17.4724C16.6657 17.6145 16.6304 17.7543 16.5637 17.8795C16.4566 18.0839 16.2716 18.2356 16.0512 18.2998C15.8308 18.364 15.594 18.3352 15.3951 18.2201L9.99263 15.5179L4.5608 12.8084C3.67142 12.3938 3.33331 12.0236 3.33331 11.424V4.8278C3.33331 2.55503 5.16352 1.66666 7.4127 1.66666ZM6.85408 8.01855H13.1238C13.4851 8.01855 13.778 7.72356 13.778 7.35967C13.778 6.99578 13.4851 6.70079 13.1238 6.70079H6.85408C6.49279 6.70079 6.19991 6.99578 6.19991 7.35967C6.19991 7.72356 6.49279 8.01855 6.85408 8.01855Z" fill="#ADB3CC"/>
</svg>
