<svg width="20" height="20" viewBox="0 0 20 20" fill="none" xmlns="http://www.w3.org/2000/svg">
<g clip-path="url(#clip0_578_4647)">
<path d="M10 13.3333C10.8841 13.3333 11.7319 12.9821 12.357 12.357C12.9822 11.7319 13.3334 10.884 13.3334 9.99996C13.3334 9.1159 12.9822 8.26806 12.357 7.64294C11.7319 7.01782 10.8841 6.66663 10 6.66663C9.11597 6.66663 8.26812 7.01782 7.643 7.64294C7.01788 8.26806 6.66669 9.1159 6.66669 9.99996C6.66669 10.884 7.01788 11.7319 7.643 12.357C8.26812 12.9821 9.11597 13.3333 10 13.3333V13.3333Z" stroke="#E6A500" stroke-width="2" stroke-linecap="round" stroke-linejoin="round"/>
<path d="M14.5834 5.41663L15.8334 4.16663M13.3334 10.3216C12.83 10.6938 12.2098 10.8729 11.5855 10.8264C10.9613 10.7799 10.3744 10.5108 9.93181 10.0682C9.48917 9.62553 9.22012 9.03871 9.1736 8.41445C9.12709 7.79019 9.3062 7.16998 9.67835 6.66663L13.3334 10.3216ZM10 1.66663V3.33329V1.66663ZM10 16.6666V18.3333V16.6666ZM4.16669 4.16663L5.41669 5.41663L4.16669 4.16663ZM14.5834 14.5833L15.8334 15.8333L14.5834 14.5833ZM1.66669 9.99996H3.33335H1.66669ZM16.6667 9.99996H18.3334H16.6667ZM4.16669 15.8333L5.41669 14.5833L4.16669 15.8333Z" stroke="#E6A500" stroke-width="1.5" stroke-linecap="round" stroke-linejoin="round"/>
</g>
<defs>
<clipPath id="clip0_578_4647">
<rect width="20" height="20" fill="white"/>
</clipPath>
</defs>
</svg>
