<svg width="16" height="18" viewBox="0 0 16 18" fill="none" xmlns="http://www.w3.org/2000/svg">
<path d="M14.4746 8.70444C13.8659 7.99357 13.5892 7.37754 13.5892 6.33096V5.97511C13.5892 4.61128 13.2754 3.73255 12.5929 2.85383C11.5411 1.48916 9.77034 0.666664 8.03688 0.666664H7.96317C6.26615 0.666664 4.55091 1.45139 3.48085 2.76067C2.76113 3.65702 2.41079 4.57351 2.41079 5.97511V6.33096C2.41079 7.37754 2.15239 7.99357 1.52543 8.70444C1.06411 9.22815 0.916687 9.90126 0.916687 10.6298C0.916687 11.3591 1.15604 12.0498 1.63641 12.6113C2.26337 13.2844 3.14873 13.7141 4.05315 13.7888C5.36256 13.9382 6.67197 13.9944 8.00043 13.9944C9.32807 13.9944 10.6375 13.9004 11.9477 13.7888C12.8513 13.7141 13.7367 13.2844 14.3636 12.6113C14.8432 12.0498 15.0834 11.3591 15.0834 10.6298C15.0834 9.90126 14.9359 9.22815 14.4746 8.70444Z" fill="#ADB3CC"/>
<path opacity="0.4" d="M9.6739 15.0236C9.25731 14.9347 6.71882 14.9347 6.30223 15.0236C5.9461 15.1059 5.56097 15.2972 5.56097 15.7169C5.58168 16.1172 5.81607 16.4705 6.14073 16.6946L6.1399 16.6955C6.5598 17.0228 7.05259 17.2309 7.56857 17.3056C7.84354 17.3434 8.12348 17.3417 8.40839 17.3056C8.92354 17.2309 9.41633 17.0228 9.83623 16.6955L9.83541 16.6946C10.1601 16.4705 10.3945 16.1172 10.4152 15.7169C10.4152 15.2972 10.03 15.1059 9.6739 15.0236Z" fill="#ADB3CC"/>
</svg>
