<svg width="20" height="20" viewBox="0 0 20 20" fill="none" xmlns="http://www.w3.org/2000/svg">
<path opacity="0.4" d="M18.3332 13.2835C18.3332 15.6085 16.4666 17.4918 14.1416 17.5002H14.1332H5.8749C3.55823 17.5002 1.66656 15.6252 1.66656 13.3002V13.2918C1.66656 13.2918 1.67156 9.6035 1.67823 7.7485C1.67906 7.40017 2.07906 7.20517 2.35156 7.42183C4.33156 8.99267 7.8724 11.8568 7.91656 11.8943C8.50823 12.3685 9.25823 12.636 10.0249 12.636C10.7916 12.636 11.5416 12.3685 12.1332 11.8852C12.1774 11.856 15.6391 9.07767 17.6491 7.481C17.9224 7.2635 18.3241 7.4585 18.3249 7.806C18.3332 9.64683 18.3332 13.2835 18.3332 13.2835Z" fill="#ADB3CC"/>
<path d="M17.8967 4.728C17.175 3.368 15.755 2.49967 14.1917 2.49967H5.875C4.31167 2.49967 2.89167 3.368 2.17 4.728C2.00834 5.03217 2.085 5.41133 2.35417 5.62633L8.54167 10.5755C8.975 10.9255 9.5 11.0997 10.025 11.0997C10.0283 11.0997 10.0308 11.0997 10.0333 11.0997C10.0358 11.0997 10.0392 11.0997 10.0417 11.0997C10.5667 11.0997 11.0917 10.9255 11.525 10.5755L17.7125 5.62633C17.9817 5.41133 18.0583 5.03217 17.8967 4.728Z" fill="#ADB3CC"/>
</svg>
