<svg width="127" height="64" viewBox="0 0 127 64" fill="none" xmlns="http://www.w3.org/2000/svg">
<path d="M26.2219 57.1676C28.5593 57.1676 30.7968 55.9332 31.7956 53.8425L29.4183 52.5084C28.799 53.6633 27.7202 54.4 26.102 54.4C23.8446 54.4 22.2464 52.6279 22.2464 50.1988C22.2464 47.7696 23.8646 45.9975 26.102 45.9975C27.7202 45.9975 28.7591 46.7342 29.4183 47.8891L31.7956 46.555C30.7968 44.4644 28.5593 43.2299 26.2219 43.2299C22.3063 43.2299 19.2498 46.3161 19.2498 50.1988C19.2498 54.0814 22.3063 57.1676 26.2219 57.1676ZM37.6642 57.1477C39.0227 57.1477 40.1014 56.6101 40.8007 55.734V56.8889H43.4976V51.931C43.4976 48.9643 41.2202 46.7342 38.1237 46.7342C35.0871 46.7342 32.7697 49.1036 32.7697 51.931C32.7697 54.7982 34.7874 57.1477 37.6642 57.1477ZM38.1237 54.4996C36.6653 54.4996 35.6065 53.3447 35.6065 51.9509C35.6065 50.5572 36.6653 49.4023 38.1237 49.4023C39.582 49.4023 40.6608 50.5572 40.6608 51.9509C40.6608 53.3447 39.582 54.4996 38.1237 54.4996ZM58.3381 46.6745C56.5601 46.6745 55.1616 47.5108 54.5423 48.8647C53.963 47.5108 52.5845 46.6745 50.6867 46.6745C47.4903 46.6745 45.8721 48.9842 45.8721 51.7319V56.8889H48.7089V52.1899C48.7089 50.6965 49.3282 49.4222 50.9064 49.4222C52.4447 49.4222 53.104 50.6766 53.104 52.1899V56.8889H55.9408V52.17C55.9408 50.6766 56.6 49.4222 58.1383 49.4222C59.6965 49.4222 60.3558 50.6965 60.3558 52.2098V56.8889H63.1926V51.7319C63.1926 48.9842 61.5545 46.6745 58.3381 46.6745ZM70.471 57.1477C72.5686 57.1477 74.2068 56.1323 75.0658 54.3602L72.8883 53.2651C72.4288 54.181 71.5298 54.6987 70.451 54.6987C69.0326 54.6987 68.0138 53.8226 67.814 52.5084H75.1657V51.6722C75.1657 48.9842 73.3478 46.6745 70.2113 46.6745C67.1547 46.6745 65.0771 49.024 65.0771 51.8713C65.0771 55.0172 67.3945 57.1477 70.471 57.1477ZM67.9339 50.9355C68.1336 49.9399 68.9527 49.1435 70.1913 49.1435C71.39 49.1435 72.229 49.92 72.3489 50.9355H67.9339ZM77.6426 42.4932V56.8889H80.4795V42.4932H77.6426ZM88.1465 57.1477C90.2442 57.1477 91.8823 56.1323 92.7414 54.3602L90.5638 53.2651C90.1043 54.181 89.2054 54.6987 88.1266 54.6987C86.7082 54.6987 85.6893 53.8226 85.4895 52.5084H92.8413V51.6722C92.8413 48.9842 91.0233 46.6745 87.8868 46.6745C84.8303 46.6745 82.7526 49.024 82.7526 51.8713C82.7526 55.0172 85.07 57.1477 88.1465 57.1477ZM85.6094 50.9355C85.8092 49.9399 86.6283 49.1435 87.8669 49.1435C89.0655 49.1435 89.9046 49.92 90.0244 50.9355H85.6094ZM99.773 57.1477C102.81 57.1477 105.147 54.7982 105.147 51.931C105.147 49.1036 102.83 46.7342 99.773 46.7342C96.7564 46.7342 94.4191 49.0837 94.4191 51.931C94.4191 54.7982 96.7365 57.1477 99.773 57.1477ZM99.773 54.4996C98.3147 54.4996 97.2559 53.3447 97.2559 51.9509C97.2559 50.5572 98.3147 49.4023 99.773 49.4023C101.231 49.4023 102.31 50.5572 102.31 51.9509C102.31 53.3447 101.231 54.4996 99.773 54.4996ZM112.188 49.5019C113.806 49.5019 114.545 50.7961 114.545 52.3093V56.8889H117.382V51.9708C117.382 49.0837 115.644 46.7541 112.188 46.7541C108.732 46.7541 107.034 49.1036 107.034 51.9708V56.8889H109.871V52.3093C109.871 50.7961 110.59 49.5019 112.188 49.5019Z" fill="#42BBFF"/>
<path d="M28.5724 23.7596C26.7386 22.407 22.2854 19.9561 19.1419 20.9737C15.2125 22.2455 8.68357 25.9399 5.66094 21.6398C4.69372 19.6048 6.22516 19.3384 7.11181 19.4594C4.93552 18.8134 1.19956 17.2427 3.66601 16.1284C4.14963 15.8861 4.21007 14.372 7.41406 12.7973C7.77678 12.4945 7.83722 9.46617 11.4644 6.86187C14.1243 6.07451 14.4265 8.25486 15.0915 8.13373C15.7564 8.0126 19.6255 7.10413 22.8898 8.13373C23.3734 8.13373 29.721 -0.224289 31.9578 1.71381C32.5017 2.13776 33.7108 3.28851 34.3154 3.89416C34.4162 2.96549 35.464 1.27773 38.8493 1.95607C39.9979 2.19833 41.0256 3.40964 41.6302 3.22793C41.4285 3.34906 40.9531 3.60344 40.6628 3.6519C40.8442 3.8336 41.6302 4.07586 41.9324 4.74207C42.1741 5.2266 42.416 5.34773 42.5369 5.34773C42.5974 5.34773 41.2069 5.58999 40.9652 5.28717C40.7233 4.98434 41.6905 7.58865 41.2674 9.70845C41.1464 10.3747 42.7182 11.0409 43.4437 12.6156C43.8306 13.3424 44.2094 13.9278 44.3505 14.1297C43.8467 13.7461 42.6941 12.9911 42.1138 13.0395C42.6579 13.2212 43.8668 14.1782 44.3505 16.5524C44.0886 16.0678 43.4195 15.1108 42.8391 15.1593C43.5445 15.7045 44.6285 18.0544 43.3228 23.0933C43.081 24.0624 41.2069 26.3034 41.1464 27.7569C41.0861 29.2105 44.8341 30.8457 45.62 31.8148C46.4058 32.7839 51.4234 35.3276 53.7811 32.7839C56.1387 30.2401 59.4635 20.3073 63.1511 20.9737C66.8388 21.6398 72.9445 24.1836 74.9998 19.4594C77.0552 14.7354 90.9593 2.13776 100.45 12.0705C109.941 22.0032 121.79 33.1473 123.845 38.4165C125.901 43.6857 126.384 45.6843 123.845 51.8619C123.301 53.3156 122.032 54.648 125.054 56.8889" stroke="#42BBFF" stroke-width="1.5" stroke-linecap="round"/>
</svg>
