<svg width="28" height="28" viewBox="0 0 28 28" fill="none" xmlns="http://www.w3.org/2000/svg">
<path fill-rule="evenodd" clip-rule="evenodd" d="M13.9274 4.01041C10.9459 4.01041 8.5511 6.40523 8.5511 9.38671C8.5511 12.3691 10.9457 14.7641 13.9274 14.7641C16.9091 14.7641 19.3037 12.3691 19.3037 9.38671C19.3037 6.40523 16.9089 4.01041 13.9274 4.01041ZM13.9274 5.76041C15.9424 5.76041 17.5537 7.37173 17.5537 9.38671C17.5537 11.4026 15.9425 13.0141 13.9274 13.0141C11.9123 13.0141 10.3011 11.4026 10.3011 9.38671C10.3011 7.37173 11.9124 5.76041 13.9274 5.76041ZM7.33833 5.10927C7.82158 5.10927 8.21333 5.50102 8.21333 5.98427C8.21333 6.46752 7.82158 6.85927 7.33833 6.85927C5.9519 6.85927 4.82747 7.98321 4.82747 9.36906C4.82747 10.7549 5.9519 11.8789 7.33833 11.8789C7.82158 11.8789 8.21333 12.2706 8.21333 12.7539C8.21333 13.2371 7.82158 13.6289 7.33833 13.6289C4.98557 13.6289 3.07747 11.7216 3.07747 9.36906C3.07747 7.01654 4.98557 5.10927 7.33833 5.10927ZM24.7882 9.36906C24.7882 7.01654 22.8801 5.10927 20.5274 5.10927C20.0441 5.10927 19.6524 5.50102 19.6524 5.98427C19.6524 6.46752 20.0441 6.85927 20.5274 6.85927C21.9138 6.85927 23.0382 7.98321 23.0382 9.36906C23.0382 10.7549 21.9138 11.8789 20.5274 11.8789C20.0441 11.8789 19.6524 12.2706 19.6524 12.7539C19.6524 13.2371 20.0441 13.6289 20.5274 13.6289C22.8801 13.6289 24.7882 11.7216 24.7882 9.36906ZM23.9118 15.8141C23.3516 15.6877 22.7529 15.6013 22.1441 15.5593C21.662 15.526 21.2443 15.8899 21.211 16.372C21.1778 16.8541 21.5416 17.2719 22.0237 17.3051C22.5447 17.3411 23.0552 17.4148 23.5516 17.5265C24.3235 17.678 24.8268 17.929 24.9518 18.1908C25.0457 18.3884 25.0457 18.6207 24.9509 18.8207C24.8276 19.0798 24.3285 19.3296 23.5675 19.4861C23.0941 19.5834 22.7893 20.0461 22.8866 20.5194C22.984 20.9928 23.4466 21.2976 23.92 21.2002C25.1778 20.9416 26.0993 20.4803 26.5316 19.5715C26.8521 18.8958 26.8521 18.1121 26.5317 17.4382C26.0963 16.5259 25.159 16.0583 23.9118 15.8141ZM6.65468 16.372C6.62143 15.8899 6.20365 15.526 5.72155 15.5593C5.1128 15.6013 4.5141 15.6877 3.92986 15.8192L3.68901 15.8701C2.58345 16.1227 1.74 16.587 1.33516 17.4381C1.01333 18.1114 1.01333 18.8965 1.3355 19.5722C1.76591 20.4801 2.68731 20.9415 3.94573 21.2002C4.41908 21.2976 4.8817 20.9928 4.97904 20.5194C5.07638 20.0461 4.77156 19.5834 4.29821 19.4861C3.53745 19.3297 3.03884 19.08 2.91596 18.8208C2.82023 18.62 2.82023 18.3891 2.91479 18.1912C3.0396 17.9288 3.54239 17.6779 4.29008 17.5315L4.67885 17.4519C5.0664 17.3803 5.45125 17.3321 5.84195 17.3051C6.32406 17.2719 6.68793 16.8541 6.65468 16.372ZM6.02828 20.0486C6.02828 17.265 8.90754 16.2861 13.9274 16.2861L14.283 16.2878C19.0931 16.333 21.8265 17.3141 21.8265 20.0283C21.8265 22.6786 19.2137 23.6934 14.6297 23.7841L13.9274 23.7908C8.89603 23.7908 6.02828 22.8291 6.02828 20.0486ZM20.0765 20.0283C20.0765 18.7327 17.9992 18.0361 13.9274 18.0361C9.85956 18.0361 7.77828 18.7437 7.77828 20.0486C7.77828 21.3444 9.85492 22.0408 13.9274 22.0408C17.994 22.0408 20.0765 21.3326 20.0765 20.0283Z" fill="#DDEFFA"/>
</svg>
