<svg width="20" height="20" viewBox="0 0 20 20" fill="none" xmlns="http://www.w3.org/2000/svg">
<path fill-rule="evenodd" clip-rule="evenodd" d="M2.5 14.0583V7.71416H17.5V14.1092C17.5 16.725 15.8535 18.3333 13.219 18.3333H6.77278C4.16301 18.3333 2.5 16.6917 2.5 14.0583ZM6.63282 12.0083C6.25412 12.0258 5.94127 11.725 5.92481 11.3425C5.92481 10.9592 6.22119 10.6425 6.59989 10.625C6.97036 10.625 7.27497 10.9175 7.28321 11.2917C7.29967 11.6758 7.00329 11.9925 6.63282 12.0083ZM10.0165 12.0083C9.63776 12.0258 9.32492 11.725 9.30845 11.3425C9.30845 10.9592 9.60483 10.6425 9.98353 10.625C10.354 10.625 10.6586 10.9175 10.6669 11.2917C10.6833 11.6758 10.3869 11.9925 10.0165 12.0083ZM13.3754 15.075C12.9967 15.0667 12.6921 14.75 12.6921 14.3667C12.6839 13.9833 12.9885 13.6675 13.3672 13.6592H13.3754C13.7623 13.6592 14.0752 13.9758 14.0752 14.3667C14.0752 14.7583 13.7623 15.075 13.3754 15.075ZM9.30845 14.3667C9.32492 14.75 9.63776 15.0508 10.0165 15.0333C10.3869 15.0175 10.6833 14.7008 10.6669 14.3175C10.6586 13.9425 10.354 13.65 9.98353 13.65C9.60483 13.6675 9.30845 13.9833 9.30845 14.3667ZM5.91658 14.3667C5.93304 14.75 6.24588 15.0508 6.62459 15.0333C6.99506 15.0175 7.29144 14.7008 7.27497 14.3175C7.26674 13.9425 6.96213 13.65 6.59166 13.65C6.21295 13.6675 5.91658 13.9833 5.91658 14.3667ZM12.7003 11.3342C12.7003 10.9508 12.9967 10.6425 13.3754 10.6342C13.7459 10.6342 14.0423 10.9333 14.0587 11.3008C14.067 11.6842 13.7706 12.0008 13.4001 12.0083C13.0214 12.0167 12.7086 11.725 12.7003 11.3425V11.3342Z" fill="#585F80"/>
<path opacity="0.4" d="M2.50281 7.71408C2.51351 7.22492 2.55467 6.25408 2.63206 5.94158C3.02723 4.18408 4.36916 3.06742 6.28739 2.90825H13.7133C15.615 3.07575 16.9734 4.19992 17.3686 5.94158C17.4452 6.24575 17.4863 7.22408 17.497 7.71408H2.50281Z" fill="#585F80"/>
<path d="M6.92072 5.49167C7.28296 5.49167 7.55464 5.2175 7.55464 4.85V2.30917C7.55464 1.94167 7.28296 1.66667 6.92072 1.66667C6.55848 1.66667 6.2868 1.94167 6.2868 2.30917V4.85C6.2868 5.2175 6.55848 5.49167 6.92072 5.49167Z" fill="#585F80"/>
<path d="M13.0791 5.49167C13.4331 5.49167 13.713 5.2175 13.713 4.85V2.30917C13.713 1.94167 13.4331 1.66667 13.0791 1.66667C12.7169 1.66667 12.4452 1.94167 12.4452 2.30917V4.85C12.4452 5.2175 12.7169 5.49167 13.0791 5.49167Z" fill="#585F80"/>
</svg>
