<svg width="28" height="28" viewBox="0 0 28 28" fill="none" xmlns="http://www.w3.org/2000/svg">
<path fill-rule="evenodd" clip-rule="evenodd" d="M19.0853 2.33334H8.91474C4.96518 2.33334 2.33334 5.15655 2.33334 9.2087V18.7913C2.33334 22.8472 4.95825 25.6667 8.91474 25.6667H19.0853C23.0418 25.6667 25.6667 22.8472 25.6667 18.7913V9.2087C25.6667 5.15276 23.0418 2.33334 19.0853 2.33334ZM8.91474 3.96124H19.0853C22.1157 3.96124 24.0388 6.02686 24.0388 9.2087V18.7913C24.0388 21.9731 22.1157 24.0388 19.0853 24.0388H8.91474C5.88435 24.0388 3.96125 21.9731 3.96125 18.7913V9.2087C3.96125 6.03108 5.89078 3.96124 8.91474 3.96124ZM14.8479 8.37543C14.794 7.97813 14.4534 7.67192 14.0414 7.67192C13.5918 7.67192 13.2274 8.03634 13.2274 8.48587V19.4935L13.2348 19.6039C13.2887 20.0012 13.6293 20.3074 14.0414 20.3074C14.4909 20.3074 14.8553 19.943 14.8553 19.4935V8.48587L14.8479 8.37543ZM9.78328 11.9379C9.72938 11.5406 9.38883 11.2344 8.97675 11.2344C8.52722 11.2344 8.1628 11.5988 8.1628 12.0484V19.4935L8.17023 19.6039C8.22413 20.0012 8.56468 20.3074 8.97675 20.3074C9.42629 20.3074 9.79071 19.943 9.79071 19.4935V12.0484L9.78328 11.9379ZM19.0233 15.1687C19.4353 15.1687 19.7759 15.4749 19.8298 15.8722L19.8372 15.9826V19.4935C19.8372 19.943 19.4728 20.3074 19.0233 20.3074C18.6112 20.3074 18.2706 20.0012 18.2167 19.6039L18.2093 19.4935V15.9826C18.2093 15.5331 18.5737 15.1687 19.0233 15.1687Z" fill="#ADB3CC"/>
</svg>
