<svg width="24" height="24" viewBox="0 0 24 24" fill="none" xmlns="http://www.w3.org/2000/svg">
<path fill-rule="evenodd" clip-rule="evenodd" d="M7.35855 3.23021C7.06444 3.01114 6.64619 3.03548 6.37967 3.30323L2.3019 7.3999L2.22947 7.48419C2.0123 7.7783 2.03747 8.19491 2.30435 8.46056L2.38863 8.53298C2.68275 8.75016 3.09935 8.72499 3.365 8.45811L6.16112 5.64851V17.4507L6.16796 17.5524C6.21763 17.9185 6.53142 18.2007 6.91112 18.2007C7.32533 18.2007 7.66112 17.8649 7.66112 17.4507V5.64864L10.4575 8.45811L10.5414 8.53092C10.8345 8.74945 11.2512 8.72621 11.5181 8.46056C11.8117 8.16834 11.8128 7.69347 11.5206 7.3999L7.44278 3.30323L7.43758 3.29873C7.4147 3.27617 7.39036 3.25507 7.36474 3.23558L7.35855 3.23021ZM17.5827 6.44468C17.5331 6.0786 17.2193 5.79645 16.8396 5.79645C16.4253 5.79645 16.0896 6.13223 16.0896 6.54645V18.3481L13.2932 15.539L13.2093 15.4662C12.9162 15.2477 12.4995 15.2709 12.2326 15.5366C11.939 15.8288 11.9379 16.3036 12.2301 16.5972L16.3079 20.6939L16.3131 20.6984C16.336 20.721 16.3603 20.7421 16.3859 20.7615L16.3921 20.7669C16.6862 20.986 17.1045 20.9616 17.371 20.6939L21.4488 16.5972L21.5212 16.5129C21.7384 16.2188 21.7132 15.8022 21.4463 15.5366C21.1528 15.2443 20.6779 15.2454 20.3857 15.539L17.5896 18.3472V6.54645L17.5827 6.44468Z" fill="#DDEFFA"/>
</svg>
