<svg width="28" height="28" viewBox="0 0 28 28" fill="none" xmlns="http://www.w3.org/2000/svg">
<path fill-rule="evenodd" clip-rule="evenodd" d="M14.3362 4.67229L14.0023 4.66666C9.17126 4.66666 4.81748 8.07693 2.4044 13.6568C2.30965 13.8759 2.30965 14.1241 2.4044 14.3432L2.57161 14.7196C4.95411 19.942 9.07135 23.1751 13.6638 23.3277L13.9977 23.3333C18.8287 23.3333 23.1825 19.9231 25.5956 14.3432C25.6916 14.1213 25.6903 13.8698 25.5921 13.6489L25.4296 13.2832C23.0414 8.05106 18.9224 4.82471 14.3362 4.67229ZM14.0105 6.40432L14.2893 6.41032L14.6008 6.42652C18.3309 6.69064 21.7613 9.45645 23.8338 13.999L23.823 14.027C21.6985 18.6672 18.1498 21.4495 14.302 21.5891L14.0047 21.5936L13.7048 21.5896L13.394 21.5734C9.77984 21.3174 6.44744 18.7068 4.36234 14.4196L4.165 13.999L4.34768 13.6106C6.54637 9.06867 10.1401 6.40531 14.0105 6.40432ZM13.9994 9.4657C11.4789 9.4657 9.43659 11.4953 9.43659 14.0002C9.43659 16.5042 11.4792 18.5336 13.9994 18.5336C16.5198 18.5336 18.5634 16.5041 18.5634 14.0002C18.5634 11.4955 16.52 9.4657 13.9994 9.4657ZM13.9994 11.2044C15.5536 11.2044 16.8134 12.4558 16.8134 14.0002C16.8134 15.5436 15.5535 16.7949 13.9994 16.7949C12.4457 16.7949 11.1866 15.5439 11.1866 14.0002C11.1866 12.4555 12.4455 11.2044 13.9994 11.2044Z" fill="#ADB3CC"/>
</svg>
